<svg data-v-423bf9ae="" xmlns="http://www.w3.org/2000/svg" viewBox="0 0 424 90" class="iconLeft"><!----><!----><!----><g data-v-423bf9ae="" id="6e2992d9-def1-4e00-b487-30d3e4dc86c8" fill="#04291D" transform="matrix(5.92300092025334,0,0,5.92300092025334,157.20326132910245,-4.427444041065435)"><path d="M3.15 13.12L6.72 13.12L6.72 13.09C6.45 12.82 6.26 12.14 6.59 11.16L8.69 5.17C8.97 4.35 9.38 3.71 9.87 3.42L9.87 3.39L6.87 3.39L6.87 3.42C7.10 3.68 7.13 4.23 6.94 4.79L5.77 8.30C5.54 8.96 5.22 10.15 5.04 11.19L4.98 11.19C4.84 10.16 4.48 8.97 4.26 8.32L3.02 4.76C2.84 4.23 2.94 3.68 3.16 3.42L3.16 3.39L-0.11 3.39L-0.11 3.42C0.46 3.84 0.91 4.59 1.16 5.29L3.28 11.16C3.63 12.12 3.42 12.82 3.15 13.09ZM17.57 10.43C16.97 11.28 15.99 11.75 14.76 11.75L13.23 11.75L13.23 8.60L14.52 8.60C15.30 8.60 15.81 8.85 16.04 9.48L16.07 9.48L16.48 7.13C15.85 7.21 15.46 7.22 14.29 7.22L13.23 7.22L13.23 4.76L15.08 4.76C16.17 4.76 16.94 5.11 17.28 5.80L17.30 5.78L17.07 3.28C16.76 3.35 16.14 3.39 15.58 3.39L10.56 3.39L10.56 3.42C10.92 3.65 11.31 4.33 11.31 5.49L11.31 11.02C11.31 12.17 10.91 12.85 10.56 13.09L10.56 13.12L15.50 13.12C16.32 13.12 16.69 13.15 17.21 13.23L17.60 10.44ZM25.87 11.23L24.57 9.11C25.75 8.74 26.47 7.83 26.47 6.34C26.47 4.52 25.17 3.39 22.93 3.39L18.96 3.39L18.96 3.42C19.32 3.65 19.71 4.33 19.71 5.43L19.71 11.02C19.71 12.17 19.32 12.85 18.96 13.09L18.96 13.12L22.33 13.12L22.33 13.09C22.02 12.85 21.63 12.18 21.63 11.07L21.63 4.77L22.61 4.76C23.81 4.75 24.49 5.39 24.49 6.41C24.49 7.66 23.81 8.15 22.61 8.15L21.94 8.15L24.11 11.86C24.42 12.38 24.64 12.87 24.82 13.41L27.69 12.89L27.69 12.87C27.02 12.64 26.40 12.08 25.87 11.23ZM30.53 13.12L34.10 13.12L34.10 13.09C33.84 12.82 33.64 12.14 33.98 11.16L36.08 5.17C36.36 4.35 36.76 3.71 37.25 3.42L37.25 3.39L34.26 3.39L34.26 3.42C34.48 3.68 34.51 4.23 34.33 4.79L33.15 8.30C32.93 8.96 32.61 10.15 32.42 11.19L32.37 11.19C32.23 10.16 31.86 8.97 31.64 8.32L30.41 4.76C30.23 4.23 30.32 3.68 30.55 3.42L30.55 3.39L27.27 3.39L27.27 3.42C27.85 3.84 28.29 4.59 28.55 5.29L30.66 11.16C31.01 12.12 30.80 12.82 30.53 13.09ZM44.95 10.43C44.35 11.28 43.37 11.75 42.14 11.75L40.61 11.75L40.61 8.60L41.90 8.60C42.69 8.60 43.19 8.85 43.43 9.48L43.46 9.48L43.86 7.13C43.23 7.21 42.84 7.22 41.68 7.22L40.61 7.22L40.61 4.76L42.46 4.76C43.55 4.76 44.32 5.11 44.66 5.80L44.69 5.78L44.45 3.28C44.14 3.35 43.53 3.39 42.97 3.39L37.94 3.39L37.94 3.42C38.30 3.65 38.70 4.33 38.70 5.49L38.70 11.02C38.70 12.17 38.29 12.85 37.94 13.09L37.94 13.12L42.88 13.12C43.71 13.12 44.07 13.15 44.59 13.23L44.98 10.44Z"></path></g><defs data-v-423bf9ae=""><linearGradient data-v-423bf9ae="" gradientTransform="rotate(25)" id="c4206ef6-7d38-445d-89a1-01ecf15df174" x1="0%" y1="0%" x2="100%" y2="0%"><stop data-v-423bf9ae="" offset="0%" style="stop-color: rgb(1, 105, 90); stop-opacity: 1;"></stop><stop data-v-423bf9ae="" offset="100%" style="stop-color: rgb(44, 194, 111); stop-opacity: 1;"></stop></linearGradient></defs><g data-v-423bf9ae="" id="446638e7-4fde-4e83-8a89-aca8d606d1fd" transform="matrix(1.5517241379310345,0,0,1.5517241379310345,-8.58620689655173,-32.58620689655173)" stroke="none" fill="url(#c4206ef6-7d38-445d-89a1-01ecf15df174)"><path style="text-indent:0;text-align:start;line-height:normal;text-transform:none;block-progression:tb;marker:none;-inkscape-font-specification:Sans" d="M50 21c-6.051 0-11 4.949-11 11a2 2 0 1 0 4 0c0-3.89 3.11-7 7-7s7 3.11 7 7c0 1.456-.365 2.36-1.031 3.313-.666.952-1.691 1.9-2.844 3-2.031 1.936-4.451 4.612-5 8.874-2.145.405-3.875 1.456-5.219 2.688-1.715 1.572-2.97 3.345-4.312 4.688a2 2 0 0 0-.094.093c-2.767 3.104-10.589 5.514-17.844 8.282-3.627 1.383-7.126 2.927-9.875 5.093C8.033 70.197 6 73.237 6 77a2 2 0 0 0 2 2h84a2 2 0 0 0 2-2c0-3.763-2.033-6.803-4.781-8.969-2.749-2.166-6.248-3.71-9.875-5.094-7.255-2.767-15.077-5.177-17.844-8.28a2 2 0 0 0-.094-.094c-1.343-1.343-2.597-3.116-4.312-4.688-1.293-1.185-2.936-2.188-4.969-2.625.425-2.832 1.905-4.304 3.75-6.063 1.097-1.046 2.322-2.131 3.344-3.593C60.24 36.132 61 34.263 61 32c0-6.051-4.949-11-11-11zm0 30c1.967 0 3.121.666 4.406 1.844 1.258 1.152 2.49 2.844 4.094 4.468.028.032.065.062.094.094 4.307 4.737 12.408 6.635 19.343 9.282 3.492 1.331 6.663 2.805 8.813 4.5C88.226 72.35 89.031 73.6 89.5 75h-79c.469-1.4 1.274-2.649 2.75-3.813 2.15-1.694 5.321-3.168 8.813-4.5 6.935-2.646 15.036-4.544 19.343-9.28.02-.022.044-.042.063-.063l.031-.032c1.605-1.624 2.836-3.316 4.094-4.468C46.879 51.666 48.034 51 50 51z" font-weight="400" color="#000" overflow="visible" font-family="Sans"></path></g><!----></svg>